<svg xmlns="http://www.w3.org/2000/svg" viewBox="0 0 504 162"><defs/><g fill="#fff" fill-rule="nonzero"><path d="M93.7 48.5c-1.6-3.7-4.1-6.7-7.5-8.9-3.4-2.2-7.2-3.3-11.5-3.3-4.2 0-8.1 1-11.6 2.9-1.9 1-3.7 2.3-5.4 3.9v-5.5H46.4v56.2h11.3V72.6c0-8.2.5-11.8.9-13.4.9-3.4 2.7-6.3 5.5-8.7 2.7-2.3 5.9-3.4 9.3-3.4 3 0 5.3.7 7.1 2.1 1.7 1.4 3 3.5 3.6 6.4.3 1.2.7 4.2.7 11.3v26.9H96V64.9c0-7.3-.8-12.8-2.3-16.4M189.6 53.7c.3-.3.6-.5.7-.7 3.4-3.4 7.6-5.1 12.9-5.1l.1-1.7v1.7c4.7 0 8.8 1.8 12.6 5.5l.2.1c.1.1.3.3.6.5 3.1 3.1 4.6 7 4.6 12s-1.7 9.1-5.3 12.6c-3.6 3.5-7.7 5.3-12.9 5.3-5.4 0-9.5-1.5-12.8-4.6-1.7-1.6-3-3.7-4.1-6.3-1-2.4-1.5-4.8-1.4-7 0-5 1.6-9.1 4.8-12.3m33.9-7.9c-5.6-5.6-12.5-8.5-20.4-8.5-6.6 0-12.7 2.1-18 6.4v-5.9h-10.9V136h10.9V88.6c5 4.1 11.1 6.1 18 6.1 3.9 0 7.6-.7 11.1-2.1 5.3-2.2 9.7-5.7 12.9-10.5 3.2-4.8 4.9-10.2 4.9-16 0-7.8-2.8-14.7-8.5-20.3M22.7 60c-4.7-2.4-6.5-4-7.3-4.9C14.5 54 14 53 14 51.8c0-1.2.5-2.3 1.6-3.3s2.4-1.5 4-1.5c2.7 0 5.7 1.5 8.8 4.5l1.7 1.6 7.5-7.8-1.7-1.6c-5.2-5.1-10.6-7.6-15.9-7.6-4.7 0-8.6 1.5-11.7 4.5-3.1 3-4.7 6.9-4.7 11.4 0 3.5 1 6.6 3 9.4 1.9 2.6 5.4 5.3 10.3 7.8 5 2.6 6.9 4.1 7.6 4.9.9 1.1 1.3 2.2 1.3 3.6 0 1.7-.6 3-2 4.3-1.4 1.3-3.2 1.9-5.2 1.9-3.1 0-6.1-1.7-9-5l-1.7-2-7.2 8.2 1.2 1.5c2 2.6 4.5 4.6 7.5 6 3 1.4 6.2 2.2 9.5 2.2 5.1 0 9.4-1.7 12.8-5.1 3.4-3.4 5.2-7.6 5.2-12.4 0-3.5-1-6.7-3.1-9.5-2.2-2.4-5.9-5.1-11.1-7.8M152.5 66.1c0 3.5-.8 6.7-2.3 9.4-1.5 2.7-3.8 4.9-6.6 6.5-5.7 3.2-12.7 3.2-18.1 0-2.8-1.6-5-3.9-6.7-6.9-1.7-2.9-2.5-6.1-2.5-9.3 0-3.2.8-6.4 2.5-9.3 1.6-2.9 3.9-5.2 6.6-6.8 2.8-1.6 5.8-2.4 9.1-2.4 5.1 0 9.4 1.8 12.8 5.3 3.4 3.7 5.2 8.2 5.2 13.5m-.5-28.4v5.6c-1.7-1.6-3.6-2.9-5.6-4-3.8-2-8-3-12.6-3-7.9 0-14.8 2.9-20.5 8.6-5.6 5.7-8.5 12.7-8.5 20.7 0 8.2 2.8 15.2 8.4 20.9 5.6 5.7 12.4 8.6 20.4 8.6 4.4 0 8.6-.9 12.4-2.8 2.1-1 4.1-2.4 6-4v5.5h11.2V37.6H152v.1zM252.6 82.1V.9h-11.4V93h36.6V82.1zM477.9 78.1l-1.2 1.2c-3.6 3.6-7.8 5.3-12.9 5.3-5.2 0-9.3-1.7-12.6-5.1-3.3-3.4-4.9-7.6-4.9-12.9 0-5.3 1.5-9.5 4.4-12.5.3-.3.6-.5.6-.6 3.3-3.3 7.4-4.9 12.4-4.9 5.1 0 9.2 1.7 12.6 5.1l1.2 1.2 7.5-7.8-1-1.1c-5.6-5.3-12.4-8.1-20.1-8.1-7.9 0-14.7 2.8-20.3 8.4-5.6 5.6-8.4 12.4-8.4 20.3 0 8 2.8 14.8 8.3 20.3 5.5 5.5 12.3 8.3 20.3 8.3 7.9 0 14.8-2.8 20.5-8.3l1.2-1.2-7.6-7.6zM389.7 146.6c-3.4 3.4-7.3 5.1-12 5.1s-8.8-1.9-12.6-5.8c-3.4-3.4-5.1-7.5-5.1-12.6 0-5.2 1.7-9.5 5.1-12.9l.4-.4c3.4-3.4 7.5-5.1 12.3-5.1 4.8 0 8.9 1.8 12.6 5.5 3.3 3.3 4.9 7.5 4.9 12.9-.1 5.3-1.9 9.6-5.6 13.3M360 66.7c0-5.2 1.7-9.5 5.1-12.9l.4-.4c3.4-3.4 7.5-5.1 12.3-5.1 4.8 0 8.9 1.8 12.6 5.5 3.3 3.3 4.9 7.5 4.9 12.9 0 5.3-1.8 9.6-5.5 13.3-3.4 3.4-7.3 5.1-12 5.1s-8.8-1.9-12.6-5.8c-3.6-3.5-5.2-7.6-5.2-12.6m-36.9 13.2c-3.4 3.4-7.3 5.1-12 5.1-4.6 0-8.8-1.9-12.6-5.8-3.4-3.4-5.1-7.5-5.1-12.6 0-5.2 1.7-9.4 5.1-12.9l.4-.4c3.4-3.4 7.5-5.1 12.3-5.1 4.8 0 8.9 1.8 12.6 5.5 3.3 3.3 4.9 7.5 4.9 12.9-.1 5.3-1.9 9.6-5.6 13.3m60 25V94.8c5.6-1 10.6-3.6 14.9-7.8 5.5-5.3 8.3-12.2 8.3-20.4S403.6 51.5 398 46c-5.5-5.5-12.3-8.3-20.3-8.3s-14.8 2.8-20.4 8.4c-4.2 4.2-6.9 9.2-7.9 14.8h-10.1c-1-5.8-3.6-10.8-7.8-15-5.5-5.5-12.3-8.3-20.3-8.3s-14.8 2.8-20.4 8.4c-5.6 5.6-8.4 12.5-8.4 20.4 0 3.7.7 7.4 2.1 10.9 1.5 3.8 3.6 7 6.2 9.4 5.8 5.5 12.7 8.3 20.6 8.3 7.9 0 14.7-2.8 20.3-8.3 4.2-4.1 6.8-9.1 7.8-14.9h10.1c.4 1.9.9 3.7 1.6 5.5 1.5 3.8 3.6 7 6.2 9.4 4.3 4.1 9.3 6.7 14.9 7.7v10.2c-5.6 1.1-10.5 3.7-14.7 7.9-5.6 5.6-8.4 12.5-8.4 20.4 0 3.7.7 7.4 2.1 10.9 1.5 3.8 3.6 7 6.2 9.4 5.8 5.5 12.7 8.3 20.6 8.3 7.8 0 14.7-2.8 20.3-8.3 5.5-5.3 8.3-12.2 8.3-20.4s-2.7-15.1-8.3-20.6c-4.5-3.7-9.5-6.3-15.2-7.3M414.9 39.3h11.7V93h-11.7zM420.8 35c2.1 0 4-.8 5.5-2.3 1.5-1.5 2.3-3.4 2.3-5.5s-.8-4-2.3-5.5c-1.5-1.5-3.4-2.3-5.5-2.3s-4 .8-5.5 2.3c-1.5 1.5-2.3 3.4-2.3 5.5s.8 4 2.3 5.5c1.5 1.5 3.4 2.3 5.5 2.3M497 40c3.6 0 6.5 2.9 6.5 6.5S500.6 53 497 53s-6.5-2.9-6.5-6.5 2.9-6.5 6.5-6.5zm0 12.4c3.2 0 5.9-2.6 5.9-5.9 0-3.2-2.6-5.9-5.9-5.9-3.3 0-5.9 2.6-5.9 5.9 0 3.3 2.6 5.9 5.9 5.9zm1-5.3l1.7 2.5c.1.2 0 .3-.2.3h-.7c-.2 0-.3-.1-.4-.2l-1.6-2.4h-1v2.4c0 .1-.1.2-.2.2h-.8c-.2 0-.2 0-.2-.2v-6.2c0-.1.1-.2.2-.2h2.3c1.1 0 2.3.4 2.3 2 .1 1-.6 1.6-1.4 1.8zm-.9-.9c.8 0 1.2-.3 1.2-1s-.4-1-1.2-1h-1.3v2h1.3z"/></g></svg>